<svg id="Layer_1" data-name="Layer 1" xmlns="http://www.w3.org/2000/svg" viewBox="0 0 16 15.87"><defs><style>.cls-1{fill:#efefef;}.cls-2{fill:#ff4a63;}.cls-3{fill:#f9e765;}.cls-4{fill:#35c9cb;}.cls-5{fill:#6d6d6d;}.cls-6{fill:#d1d1d1;}.cls-7{fill:#020210;}.cls-8{fill:#fff;}</style></defs><title>problem1</title><path class="cls-1" d="M16,7.94A8,8,0,1,1,8,0a8,8,0,0,1,8,7.94Z"/><path class="cls-1" d="M16,7.94A8,8,0,1,1,8,0a8,8,0,0,1,8,7.94Z"/><rect class="cls-2" x="2.67" y="9.92" width="0.67" height="2.65"/><rect class="cls-3" x="4" y="10.58" width="0.67" height="1.98"/><rect class="cls-2" x="5.33" y="9.92" width="0.67" height="2.65"/><rect class="cls-3" x="6.67" y="9.26" width="0.67" height="3.31"/><path class="cls-3" d="M10.33,7.27a1,1,0,1,1,0-2V4a2.32,2.32,0,1,0,1.65,4L11,7a1,1,0,0,1-.71.29Z"/><path class="cls-4" d="M11.33,6.28A1,1,0,0,1,11,7l.94.94a2.28,2.28,0,0,0,.69-1.64Z"/><path class="cls-5" d="M11,3.31V5.62L12.65,4A2.37,2.37,0,0,0,11,3.31Z"/><path class="cls-6" d="M12.65,4,11,5.62h2.33A2.31,2.31,0,0,0,12.65,4Z"/><path class="cls-2" d="M9.33,6.28A1,1,0,0,0,11,7l-.71-.7v-1a1,1,0,0,0-1,1Z"/><path class="cls-2" d="M11.33,6.28h-1L11,7a1,1,0,0,0,.29-.7Z"/><rect class="cls-4" x="2.67" y="3.31" width="4.67" height="5.29"/><path class="cls-7" d="M13.17,2.65a.16.16,0,0,1,.16-.17h0a.17.17,0,0,1,.17.17h0a.17.17,0,0,1-.17.16h0A.16.16,0,0,1,13.17,2.65Zm-.67,0a.17.17,0,0,1,.17-.17h0a.16.16,0,0,1,.16.17h0a.16.16,0,0,1-.16.16h0A.17.17,0,0,1,12.5,2.65Zm-.67,0A.17.17,0,0,1,12,2.48h0a.17.17,0,0,1,.17.17h0a.17.17,0,0,1-.17.16h0A.17.17,0,0,1,11.83,2.65Zm-.66,0a.16.16,0,0,1,.16-.17h0a.17.17,0,0,1,.17.17h0a.17.17,0,0,1-.17.16h0A.16.16,0,0,1,11.17,2.65Zm-.67,0a.17.17,0,0,1,.17-.17h0a.16.16,0,0,1,.16.17h0a.16.16,0,0,1-.16.16h0A.17.17,0,0,1,10.5,2.65Zm-.67,0A.17.17,0,0,1,10,2.48h0a.17.17,0,0,1,.17.17h0a.17.17,0,0,1-.17.16h0A.17.17,0,0,1,9.83,2.65Zm-.66,0a.16.16,0,0,1,.16-.17h0a.17.17,0,0,1,.17.17h0a.17.17,0,0,1-.17.16h0A.16.16,0,0,1,9.17,2.65Zm-.67,0a.17.17,0,0,1,.17-.17h0a.16.16,0,0,1,.16.17h0a.16.16,0,0,1-.16.16h0A.17.17,0,0,1,8.5,2.65Zm-.67,0A.17.17,0,0,1,8,2.48H8a.17.17,0,0,1,.17.17h0A.17.17,0,0,1,8,2.81H8A.17.17,0,0,1,7.83,2.65Zm-.66,0a.16.16,0,0,1,.16-.17h0a.17.17,0,0,1,.17.17h0a.17.17,0,0,1-.17.16h0A.16.16,0,0,1,7.17,2.65Zm-.67,0a.17.17,0,0,1,.17-.17h0a.16.16,0,0,1,.16.17h0a.16.16,0,0,1-.16.16h0A.17.17,0,0,1,6.5,2.65Zm-.67,0A.17.17,0,0,1,6,2.48H6a.17.17,0,0,1,.17.17h0A.17.17,0,0,1,6,2.81H6A.17.17,0,0,1,5.83,2.65Zm-.66,0a.16.16,0,0,1,.16-.17h0a.17.17,0,0,1,.17.17h0a.17.17,0,0,1-.17.16h0A.16.16,0,0,1,5.17,2.65Zm-.67,0a.17.17,0,0,1,.17-.17h0a.16.16,0,0,1,.16.17h0a.16.16,0,0,1-.16.16h0A.17.17,0,0,1,4.5,2.65Zm-.67,0A.17.17,0,0,1,4,2.48H4a.17.17,0,0,1,.17.17h0A.17.17,0,0,1,4,2.81H4A.17.17,0,0,1,3.83,2.65Zm-.66,0a.16.16,0,0,1,.16-.17h0a.17.17,0,0,1,.17.17h0a.17.17,0,0,1-.17.16h0A.16.16,0,0,1,3.17,2.65Zm-.67,0a.17.17,0,0,1,.17-.17h0a.16.16,0,0,1,.16.17h0a.16.16,0,0,1-.16.16h0A.17.17,0,0,1,2.5,2.65Z"/><path class="cls-7" d="M13.17,13.23a.17.17,0,0,1,.16-.17h0a.18.18,0,0,1,.17.17h0a.17.17,0,0,1-.17.16h0A.16.16,0,0,1,13.17,13.23Zm-.67,0a.18.18,0,0,1,.17-.17h0a.17.17,0,0,1,.16.17h0a.16.16,0,0,1-.16.16h0A.17.17,0,0,1,12.5,13.23Zm-.67,0a.18.18,0,0,1,.17-.17h0a.18.18,0,0,1,.17.17h0a.17.17,0,0,1-.17.16h0A.17.17,0,0,1,11.83,13.23Zm-.66,0a.17.17,0,0,1,.16-.17h0a.18.18,0,0,1,.17.17h0a.17.17,0,0,1-.17.16h0A.16.16,0,0,1,11.17,13.23Zm-.67,0a.18.18,0,0,1,.17-.17h0a.17.17,0,0,1,.16.17h0a.16.16,0,0,1-.16.16h0A.17.17,0,0,1,10.5,13.23Zm-.67,0a.18.18,0,0,1,.17-.17h0a.18.18,0,0,1,.17.17h0a.17.17,0,0,1-.17.16h0A.17.17,0,0,1,9.83,13.23Zm-.66,0a.17.17,0,0,1,.16-.17h0a.18.18,0,0,1,.17.17h0a.17.17,0,0,1-.17.16h0A.16.16,0,0,1,9.17,13.23Zm-.67,0a.18.18,0,0,1,.17-.17h0a.17.17,0,0,1,.16.17h0a.16.16,0,0,1-.16.16h0A.17.17,0,0,1,8.5,13.23Zm-.67,0A.18.18,0,0,1,8,13.06H8a.18.18,0,0,1,.17.17h0a.17.17,0,0,1-.17.16H8A.17.17,0,0,1,7.83,13.23Zm-.66,0a.17.17,0,0,1,.16-.17h0a.18.18,0,0,1,.17.17h0a.17.17,0,0,1-.17.16h0A.16.16,0,0,1,7.17,13.23Zm-.67,0a.18.18,0,0,1,.17-.17h0a.17.17,0,0,1,.16.17h0a.16.16,0,0,1-.16.16h0A.17.17,0,0,1,6.5,13.23Zm-.67,0A.18.18,0,0,1,6,13.06H6a.18.18,0,0,1,.17.17h0a.17.17,0,0,1-.17.16H6A.17.17,0,0,1,5.83,13.23Zm-.66,0a.17.17,0,0,1,.16-.17h0a.18.18,0,0,1,.17.17h0a.17.17,0,0,1-.17.16h0A.16.16,0,0,1,5.17,13.23Zm-.67,0a.18.18,0,0,1,.17-.17h0a.17.17,0,0,1,.16.17h0a.16.16,0,0,1-.16.16h0A.17.17,0,0,1,4.5,13.23Zm-.67,0A.18.18,0,0,1,4,13.06H4a.18.18,0,0,1,.17.17h0a.17.17,0,0,1-.17.16H4A.17.17,0,0,1,3.83,13.23Zm-.66,0a.17.17,0,0,1,.16-.17h0a.18.18,0,0,1,.17.17h0a.17.17,0,0,1-.17.16h0A.16.16,0,0,1,3.17,13.23Zm-.67,0a.18.18,0,0,1,.17-.17h0a.17.17,0,0,1,.16.17h0a.16.16,0,0,1-.16.16h0A.17.17,0,0,1,2.5,13.23Z"/><path class="cls-7" d="M3.33,12.73H2.67a.16.16,0,0,1-.17-.17V9.92a.17.17,0,0,1,.17-.17h.66a.17.17,0,0,1,.17.17v2.64A.16.16,0,0,1,3.33,12.73Zm-.5-.33h.34V10.08H2.83Z"/><path class="cls-7" d="M4.67,12.73H4a.17.17,0,0,1-.17-.17v-2A.17.17,0,0,1,4,10.42h.67a.16.16,0,0,1,.16.16v2A.16.16,0,0,1,4.67,12.73Zm-.5-.33H4.5V10.75H4.17Z"/><path class="cls-7" d="M6,12.73H5.33a.16.16,0,0,1-.16-.17V9.92a.17.17,0,0,1,.16-.17H6a.18.18,0,0,1,.17.17v2.64A.17.17,0,0,1,6,12.73Zm-.5-.33h.33V10.08H5.5Z"/><path class="cls-7" d="M7.33,12.73H6.67a.16.16,0,0,1-.17-.17V9.26a.17.17,0,0,1,.17-.17h.66a.17.17,0,0,1,.17.17v3.3A.16.16,0,0,1,7.33,12.73Zm-.5-.33h.34v-3H6.83Z"/><path class="cls-7" d="M10.33,8.76a2.48,2.48,0,1,1,0-5A.17.17,0,0,1,10.5,4V6.12h2.17a.16.16,0,0,1,.16.16A2.49,2.49,0,0,1,10.33,8.76Zm-.16-4.62a2.15,2.15,0,1,0,2.32,2.31H10.33a.17.17,0,0,1-.16-.17Z"/><path class="cls-7" d="M13.33,5.79H11a.18.18,0,0,1-.17-.17V3.31A.18.18,0,0,1,11,3.14a2.49,2.49,0,0,1,2.5,2.48A.17.17,0,0,1,13.33,5.79Zm-2.16-.33h2a2.16,2.16,0,0,0-2-2Z"/><path class="cls-7" d="M12,8.1a.18.18,0,0,1-.12,0L10.22,6.4a.16.16,0,0,1,.23-.23l1.67,1.65a.17.17,0,0,1,0,.23A.18.18,0,0,1,12,8.1Z"/><path class="cls-7" d="M13.33,9.42H8a.17.17,0,0,1-.17-.16A.18.18,0,0,1,8,9.09h5.33a.17.17,0,0,1,.17.17A.16.16,0,0,1,13.33,9.42Z"/><path class="cls-7" d="M12.67,10.08H8a.17.17,0,0,1-.17-.16A.18.18,0,0,1,8,9.75h4.67a.17.17,0,0,1,.16.17A.16.16,0,0,1,12.67,10.08Z"/><path class="cls-7" d="M13.33,10.75H8a.18.18,0,0,1-.17-.17A.17.17,0,0,1,8,10.42h5.33a.16.16,0,0,1,.17.16A.17.17,0,0,1,13.33,10.75Z"/><path class="cls-7" d="M12.67,11.41H8a.18.18,0,0,1-.17-.17A.17.17,0,0,1,8,11.08h4.67a.16.16,0,0,1,.16.16A.17.17,0,0,1,12.67,11.41Z"/><path class="cls-7" d="M13.33,12.07H8a.18.18,0,0,1-.17-.17A.17.17,0,0,1,8,11.74h5.33a.16.16,0,0,1,.17.16A.17.17,0,0,1,13.33,12.07Z"/><path class="cls-7" d="M12.67,12.73H8a.17.17,0,0,1-.17-.17A.17.17,0,0,1,8,12.4h4.67a.16.16,0,0,1,.16.16A.16.16,0,0,1,12.67,12.73Z"/><path class="cls-7" d="M7.33,8.76H2.67A.16.16,0,0,1,2.5,8.6V3.31a.17.17,0,0,1,.17-.17H7.33a.17.17,0,0,1,.17.17V8.6A.16.16,0,0,1,7.33,8.76Zm-4.5-.33H7.17v-5H2.83Z"/><path class="cls-8" d="M4,6.78H3.33a.17.17,0,0,1-.16-.17.16.16,0,0,1,.16-.16H4a.17.17,0,0,1,.17.16A.18.18,0,0,1,4,6.78Z"/><path class="cls-8" d="M4.67,7.44a.17.17,0,0,1-.12-.05l-.67-.66a.17.17,0,0,1,0-.23.16.16,0,0,1,.24,0l.66.66a.15.15,0,0,1,0,.23A.16.16,0,0,1,4.67,7.44Z"/><path class="cls-8" d="M6,7.44H4.67a.16.16,0,0,1-.17-.17.16.16,0,0,1,.17-.16H6a.17.17,0,0,1,.17.16A.17.17,0,0,1,6,7.44Z"/><path class="cls-8" d="M3.33,8.1a.16.16,0,0,1-.11,0,.15.15,0,0,1,0-.23l2-2a.17.17,0,0,1,.23,0,.16.16,0,0,1,0,.24l-2,2A.17.17,0,0,1,3.33,8.1Z"/><path class="cls-8" d="M6,6.12H5.33A.17.17,0,0,1,5.17,6a.16.16,0,0,1,.16-.16H6A.17.17,0,0,1,6.17,6,.18.18,0,0,1,6,6.12Z"/><path class="cls-8" d="M6,6.12a.18.18,0,0,1-.12,0,.18.18,0,0,1,0-.24l.67-.66a.17.17,0,0,1,.23,0,.16.16,0,0,1,0,.24l-.66.66A.18.18,0,0,1,6,6.12Z"/><path class="cls-8" d="M4,4.79H3.33a.16.16,0,0,1-.16-.16.17.17,0,0,1,.16-.17H4a.18.18,0,0,1,.17.17A.17.17,0,0,1,4,4.79Z"/><path class="cls-8" d="M4.67,5.46a.17.17,0,0,1-.12,0l-.67-.66a.17.17,0,0,1,.24-.24l.66.66a.16.16,0,0,1,0,.24A.16.16,0,0,1,4.67,5.46Z"/><path class="cls-8" d="M5.33,5.46H4.67a.17.17,0,0,1-.17-.17.16.16,0,0,1,.17-.16h.66a.16.16,0,0,1,.17.16A.17.17,0,0,1,5.33,5.46Z"/><path class="cls-8" d="M5.33,5.46a.16.16,0,0,1-.11,0,.16.16,0,0,1,0-.24L6.55,3.85a.17.17,0,0,1,.23,0,.15.15,0,0,1,0,.23L5.45,5.41A.17.17,0,0,1,5.33,5.46Z"/><path class="cls-8" d="M6,7.44a.18.18,0,0,1-.12-.05.17.17,0,0,1,0-.23l.67-.66a.16.16,0,0,1,.23.23l-.66.66A.18.18,0,0,1,6,7.44Z"/><path class="cls-8" d="M5.33,4.13h-2A.16.16,0,0,1,3.17,4a.17.17,0,0,1,.16-.17h2A.17.17,0,0,1,5.5,4,.16.16,0,0,1,5.33,4.13Z"/><path class="cls-8" d="M6.67,8.1h-2a.16.16,0,0,1-.17-.16.16.16,0,0,1,.17-.17h2a.16.16,0,0,1,.16.17A.16.16,0,0,1,6.67,8.1Z"/><path class="cls-7" d="M10.33,7.44a1.16,1.16,0,1,1,0-2.31.16.16,0,0,1,.17.16v.83h.83a.16.16,0,0,1,.17.16A1.16,1.16,0,0,1,10.33,7.44Zm-.16-2a.83.83,0,1,0,1,1h-.82a.17.17,0,0,1-.16-.17Z"/><path class="cls-7" d="M11,5.79a.18.18,0,0,1-.12,0,.18.18,0,0,1,0-.24l1.67-1.65a.17.17,0,0,1,.23,0,.15.15,0,0,1,0,.23L11.12,5.74A.18.18,0,0,1,11,5.79Z"/></svg>