<svg id="Layer_1" data-name="Layer 1" xmlns="http://www.w3.org/2000/svg" xmlns:xlink="http://www.w3.org/1999/xlink" viewBox="0 0 756.28 679.04"><defs><style>.cls-1{fill:url(#linear-gradient);}.cls-2{fill:url(#linear-gradient-2);}.cls-3{fill:url(#linear-gradient-3);}.cls-4{fill:none;clip-rule:evenodd;}.cls-5{clip-path:url(#clip-path);}.cls-6{fill:url(#linear-gradient-4);}.cls-7{mask:url(#mask);}.cls-8{fill:#122130;fill-rule:evenodd;}.cls-9{clip-path:url(#clip-path-2);}.cls-10{fill:url(#linear-gradient-5);}.cls-11{mask:url(#mask-2);}.cls-12{clip-path:url(#clip-path-3);}.cls-13{fill:url(#linear-gradient-6);}.cls-14{mask:url(#mask-3);}.cls-15{clip-path:url(#clip-path-4);}.cls-16{fill:url(#linear-gradient-7);}.cls-17{clip-path:url(#clip-path-5);}.cls-18{fill:url(#linear-gradient-8);}</style><linearGradient id="linear-gradient" x1="126.61" y1="615.06" x2="632.91" y2="466.91" gradientTransform="translate(138.01 794.28) rotate(-90)" gradientUnits="userSpaceOnUse"><stop offset="0" stop-color="#fff"/><stop offset="1"/></linearGradient><linearGradient id="linear-gradient-2" x1="205.8" y1="774.7" x2="363.52" y2="386.4" gradientTransform="translate(215.7 705.45) rotate(-90)" gradientUnits="userSpaceOnUse"><stop offset="0" stop-color="#fff"/><stop offset="0.62"/><stop offset="1" stop-color="#949494"/></linearGradient><linearGradient id="linear-gradient-3" x1="572.39" y1="763.22" x2="260.62" y2="620.74" gradientTransform="translate(139.61 655) rotate(-90)" xlink:href="#linear-gradient"/><clipPath id="clip-path" transform="translate(-349.62 -2.34)"><polygon class="cls-4" points="912.09 539.66 425.6 189.69 368.91 199.79 389.32 254.12 868.18 570.31 896.34 576.94 912.09 539.66"/></clipPath><linearGradient id="linear-gradient-4" x1="745.18" y1="440.26" x2="686.36" y2="253.18" gradientTransform="translate(335.11 1085.99) rotate(-90)" gradientUnits="userSpaceOnUse"><stop offset="0" stop-color="#e4d22c"/><stop offset="1" stop-color="#7fc142"/></linearGradient><mask id="mask" x="85.71" y="204.33" width="486.58" height="413.13" maskUnits="userSpaceOnUse"><g transform="translate(-349.62 -2.34)"><rect class="cls-1" x="630.69" y="140.92" width="95.87" height="544.63" transform="translate(-66.52 689) rotate(-51.65)"/></g></mask><clipPath id="clip-path-2" transform="translate(-349.62 -2.34)"><path class="cls-4" d="M561.22,497.66l403.88-205c25.37-15.12,72.35,15.16,33.34,35.86l-14,12.33-382,221.32L591,562Z"/></clipPath><linearGradient id="linear-gradient-5" x1="533.21" y1="199.26" x2="581.11" y2="491.53" gradientTransform="translate(417.45 976.8) rotate(-90)" xlink:href="#linear-gradient-4"/><mask id="mask-2" x="189.39" y="153.76" width="477.92" height="514.53" maskUnits="userSpaceOnUse"><g transform="translate(-349.62 -2.34)"><rect class="cls-2" x="545.41" y="292.66" width="465.1" height="241.41" transform="translate(-28.93 766.95) rotate(-51.65)"/></g></mask><clipPath id="clip-path-3" transform="translate(-349.62 -2.34)"><path class="cls-4" d="M842.94,553.64c8.58,3.28,15,5.53,7.79-15.21L687.21,119.15l18.73-51.87L717.41,71,917,532.87c5.43,13.19,18.49,39.5,16.06,52.24-3,15.52-14.38,20.13-58.27-9.84-5.52-3.77-25.22-16.72-31.82-21.63"/></clipPath><linearGradient id="linear-gradient-6" x1="530.12" y1="268.35" x2="647.62" y2="621.39" gradientTransform="translate(366.98 928.63) rotate(-90)" gradientUnits="userSpaceOnUse"><stop offset="0" stop-color="#60c4bc"/><stop offset="1" stop-color="#7fc142"/></linearGradient><mask id="mask-3" x="195.73" y="63.84" width="510.5" height="480.24" maskUnits="userSpaceOnUse"><g transform="translate(-349.62 -2.34)"><rect class="cls-3" x="670.5" y="83.75" width="260.2" height="445.1" transform="translate(63.62 744.07) rotate(-51.65)"/></g></mask><clipPath id="clip-path-4" transform="translate(-349.62 -2.34)"><path class="cls-4" d="M646.33,246.92l268,61.5c14.07,3.23,88,16.74,65.21,35,57-24.95,52.37-58.31-21.85-71.9L645.35,213.28Z"/></clipPath><linearGradient id="linear-gradient-7" x1="514.61" y1="649.06" x2="697.33" y2="411.09" gradientTransform="translate(320.32 880.65) rotate(-90)" gradientUnits="userSpaceOnUse"><stop offset="0" stop-color="#e4d22c"/><stop offset="1" stop-color="#86b840"/></linearGradient><clipPath id="clip-path-5" transform="translate(-349.62 -2.34)"><path class="cls-4" d="M612.83,557s-21.89,4.37-4.77-66.66L705.53,86.11c4.94-26,15-9.74,14.7-10.3-38.66-67.7-68.6-44.85-78.45,3.34L534.11,520.07c-4.81,22.92.72,39.12,12.39,47.19,13.19,9.13,36.72,6.36,66.33-10.26"/></clipPath><linearGradient id="linear-gradient-8" x1="886.36" y1="542.69" x2="617.33" y2="159.42" gradientTransform="translate(265.25 1059.38) rotate(-90)" gradientUnits="userSpaceOnUse"><stop offset="0" stop-color="#e4702b"/><stop offset="0.38" stop-color="#eae13a"/><stop offset="1" stop-color="#01b0d9"/></linearGradient></defs><title>redstar</title><g class="cls-5"><rect class="cls-6" x="585.21" y="60.99" width="100.46" height="647.64" transform="translate(-410.25 642) rotate(-51.65)"/></g><g class="cls-7"><polygon class="cls-8" points="563.84 535.59 130.03 223.5 85.71 279.51 519.94 566.23 548.09 572.87 563.84 535.59"/></g><g class="cls-9"><rect class="cls-10" x="551.27" y="287.44" width="476.31" height="255.69" transform="translate(-375.71 774.33) rotate(-51.65)"/></g><g class="cls-11"><path class="cls-8" d="M558.84,495.77l403.87-205c25.37-15.12,72.36,15.16,33.35,35.87L982.11,339l-382,221.31-11.54-.25Z" transform="translate(-349.62 -2.34)"/></g><g class="cls-12"><rect class="cls-13" x="663.67" y="85.7" width="300.59" height="506.71" transform="translate(-306.62 764.64) rotate(-51.65)"/></g><g class="cls-14"><polygon class="cls-8" points="482.38 494.71 335.85 119.01 354.58 67.14 366.06 70.86 561.42 523.04 482.38 494.71"/></g><g class="cls-15"><rect class="cls-16" x="735.53" y="80.81" width="209.33" height="372.08" transform="translate(-240.04 757.82) rotate(-51.65)"/></g><g class="cls-17"><rect class="cls-18" x="366.4" y="151.32" width="523.21" height="295.98" transform="translate(-346.02 603.73) rotate(-51.65)"/></g></svg>