<svg id="Layer_1" data-name="Layer 1" xmlns="http://www.w3.org/2000/svg" xmlns:xlink="http://www.w3.org/1999/xlink" viewBox="0 0 688.78 523.4"><defs><style>.cls-1{fill:url(#linear-gradient);}.cls-2{fill:url(#linear-gradient-2);}.cls-3{fill:url(#linear-gradient-3);}.cls-4{fill:none;clip-rule:evenodd;}.cls-5{clip-path:url(#clip-path);}.cls-6{fill:url(#linear-gradient-4);}.cls-7{mask:url(#mask);}.cls-8{fill:#122130;fill-rule:evenodd;}.cls-9{clip-path:url(#clip-path-2);}.cls-10{fill:url(#linear-gradient-5);}.cls-11{mask:url(#mask-2);}.cls-12{clip-path:url(#clip-path-3);}.cls-13{fill:url(#linear-gradient-6);}.cls-14{mask:url(#mask-3);}.cls-15{clip-path:url(#clip-path-4);}.cls-16{fill:url(#linear-gradient-7);}.cls-17{clip-path:url(#clip-path-5);}.cls-18{fill:url(#linear-gradient-8);}</style><linearGradient id="linear-gradient" x1="126.61" y1="615.06" x2="632.91" y2="466.91" gradientTransform="translate(268.63 -235.78)" gradientUnits="userSpaceOnUse"><stop offset="0" stop-color="#fff"/><stop offset="1"/></linearGradient><linearGradient id="linear-gradient-2" x1="205.8" y1="774.7" x2="363.52" y2="386.4" gradientTransform="translate(279.6 -195.89)" gradientUnits="userSpaceOnUse"><stop offset="0" stop-color="#fff"/><stop offset="0.62"/><stop offset="1" stop-color="#949494"/></linearGradient><linearGradient id="linear-gradient-3" x1="572.39" y1="763.22" x2="260.62" y2="620.74" gradientTransform="translate(271.68 -196.61)" xlink:href="#linear-gradient"/><clipPath id="clip-path" transform="translate(-336.22 -101.15)"><polygon class="cls-4" points="388.15 350.55 986.81 323.13 1025 280.03 975.28 250.1 403.56 299.28 377.36 311.54 388.15 350.55"/></clipPath><linearGradient id="linear-gradient-4" x1="408.96" y1="339.11" x2="350.14" y2="152.03" gradientUnits="userSpaceOnUse"><stop offset="0" stop-color="#e4d22c"/><stop offset="1" stop-color="#7fc142"/></linearGradient><mask id="mask" x="41.15" y="155.75" width="544.63" height="95.87" maskUnits="userSpaceOnUse"><g transform="translate(-336.22 -101.15)"><rect class="cls-1" x="377.36" y="256.9" width="544.63" height="95.87"/></g></mask><clipPath id="clip-path-2" transform="translate(-336.22 -101.15)"><path class="cls-4" d="M689.36,165.78,499.82,577.12c-10.51,27.6-66.15,33-48.4-7.44l3.29-18.33L616.92,140.79l9.2-7Z"/></clipPath><linearGradient id="linear-gradient-5" x1="197" y1="98.1" x2="244.89" y2="390.38" xlink:href="#linear-gradient-4"/><mask id="mask-2" x="114.77" y="32.67" width="241.41" height="465.1" maskUnits="userSpaceOnUse"><g transform="translate(-336.22 -101.15)"><rect class="cls-2" x="450.99" y="133.82" width="241.41" height="465.1"/></g></mask><clipPath id="clip-path-3" transform="translate(-336.22 -101.15)"><path class="cls-4" d="M433.7,296.69c-8.77,2.75-15.2,5,3.32,16.76L825.43,540.78l17.5,52.3-11.31,4.19L388.53,358.91c-12.45-7-39-19.5-45-31-7.3-14-1.21-24.69,51.8-28.43,6.67-.47,30.16-2.54,38.38-2.78"/></clipPath><linearGradient id="linear-gradient-6" x1="193.91" y1="167.19" x2="311.4" y2="520.24" gradientUnits="userSpaceOnUse"><stop offset="0" stop-color="#60c4bc"/><stop offset="1" stop-color="#7fc142"/></linearGradient><mask id="mask-3" x="61.61" y="233.12" width="445.1" height="260.2" maskUnits="userSpaceOnUse"><g transform="translate(-336.22 -101.15)"><rect class="cls-3" x="397.83" y="334.28" width="445.1" height="260.2"/></g></mask><clipPath id="clip-path-4" transform="translate(-336.22 -101.15)"><path class="cls-4" d="M778.2,415.22,529.84,533.31c-13,6.2-79.38,41.47-72.85,13-29.23,54.94-4.89,78.22,61.74,42.82L799.84,441Z"/></clipPath><linearGradient id="linear-gradient-7" x1="178.4" y1="547.91" x2="361.12" y2="309.93" gradientUnits="userSpaceOnUse"><stop offset="0" stop-color="#e4d22c"/><stop offset="1" stop-color="#86b840"/></linearGradient><clipPath id="clip-path-5" transform="translate(-336.22 -101.15)"><path class="cls-4" d="M612.07,151.27s14.45-17,45.1,49.32L831.56,578.06c12.25,23.44-5.73,17-5.14,17.19,72.33,29.11,81.63-7.39,59.45-51.29L696.71,131.38c-10.45-21-24.84-30.23-39-29.32-16,1-32.74,17.8-45.64,49.21"/></clipPath><linearGradient id="linear-gradient-8" x1="550.14" y1="441.54" x2="281.11" y2="58.26" gradientUnits="userSpaceOnUse"><stop offset="0" stop-color="#e4702b"/><stop offset="0.38" stop-color="#eae13a"/><stop offset="1" stop-color="#01b0d9"/></linearGradient></defs><title>StarLogo</title><g class="cls-5"><rect class="cls-6" x="41.15" y="148.94" width="647.64" height="100.46"/></g><g class="cls-7"><polygon class="cls-8" points="51.93 251.62 585.77 227.17 585.77 155.75 67.34 200.35 41.15 212.61 51.93 251.62"/></g><g class="cls-9"><rect class="cls-10" x="97.45" y="32.67" width="255.69" height="476.31"/></g><g class="cls-11"><path class="cls-8" d="M692.4,165.78,502.86,577.12c-10.52,27.6-66.15,33-48.41-7.44l3.29-18.33L620,140.79l9.21-7Z" transform="translate(-336.22 -101.15)"/></g><g class="cls-12"><rect class="cls-13" y="195.53" width="506.71" height="300.59"/></g><g class="cls-14"><polygon class="cls-8" points="141.18 233.13 489.21 436.83 506.71 489.13 495.4 493.33 61.61 259.96 141.18 233.13"/></g><g class="cls-15"><rect class="cls-16" x="91.54" y="314.07" width="372.08" height="209.33"/></g><g class="cls-17"><rect class="cls-18" x="275.85" width="295.98" height="523.21"/></g></svg>